<svg xmlns="http://www.w3.org/2000/svg" width="5160" height="5223" viewBox="0 0 5160 5223">
  <g id="Groupe_303" data-name="Groupe 303" transform="translate(-20371.309 -10673)">
    <g id="Groupe_294" data-name="Groupe 294" transform="translate(10390.248 466.716)">
      <ellipse id="Ellipse_51" data-name="Ellipse 51" cx="2580" cy="2611.5" rx="2580" ry="2611.5" transform="translate(9981.061 10206.284)" fill="#1c1d22"/>
      <g id="Groupe_273" data-name="Groupe 273" transform="translate(5566.593 1584.166)">
        <path id="Tracé_72" data-name="Tracé 72" d="M68.488,67.33,75.3,72.483,150.421,120.7l10.278,4.649,10.714,1.975L1218.8,137.758l4.565,1088.088s-5.056,77.082-28.157,129.672-64.25,80.685-64.25,80.685-33.946,22.273-104.592,20.918-329.936-1.365-436.214-44.232c-57.177-23.063-105.038-52.559-169.4-95.661-6.143-4.114-22.213-16.68-36.563-33.172-10.431-11.989-26.168-27.526-37.664-47.086-20.2-34.36-36.649-80.762-55.6-138.464C184.028,773.063,68.076,214.278,68.076,214.278L26.6,63.7,61.349,61.35Z" transform="translate(5735.23 10815.903) rotate(45)" fill="#fff"/>
        <path id="Tracé_73" data-name="Tracé 73" d="M-42.507,22.791c19.8-11.019,57.276-14.744,607.593-130.986L497.12,791.115l-9.372,126.177s-3.473,71.167-27.923,119.82-69.875,74.794-69.875,74.794-79.615,63.588-219.136,80.893c-71.435,8.86-330.511,13.2-345.576-6.851-1.76-2.344-13.2-25.865-11.551-64.511,9.794-230.078,83.15-1000.947,93.391-1032.846C-81.354,52.56-49.534,26.7-42.507,22.791Z" transform="translate(5698.594 10877.363) rotate(-49)" fill="#fff"/>
        <path id="Tracé_74" data-name="Tracé 74" d="M68.488,1158.517l6.808-5.154,75.125-48.215L160.7,1100.5l10.714-1.975L1215,1079.556,1223.364,0s-5.056-77.082-28.157-129.671-64.25-80.685-64.25-80.685-33.946-22.273-104.592-20.918-329.936,1.365-436.214,44.233c-57.177,23.063-105.038,52.559-169.4,95.661-6.143,4.114-22.213,16.68-36.563,33.172-10.431,11.989-26.168,27.526-37.664,47.086-20.2,34.36-36.649,80.762-55.6,138.464C184.028,452.784,68.076,1011.569,68.076,1011.569L0,1225.846,61.349,1164.5Z" transform="translate(9101.701 11682.708) rotate(135)" fill="#1c42f2"/>
        <path id="Tracé_75" data-name="Tracé 75" d="M-192-165.2S37.217-391.641,62.184-407.072c37.213-23,130.869-91.016,334.076-51.479,130.052,25.3,559.646,146.365,559.646,146.365l162.53,49.166a67.973,67.973,0,0,1,9.252,4.2,82.383,82.383,0,0,1,10.566,6.894c8.726,6.148,12.006,9.419,18.388,14.89,16.2,13.884,21.265,21.2,29.884,30.945,11.162,12.617,29.079,36.371,41.378,61.716,16.121,33.222,25.335,67.664,25.335,67.664l9.577,102.452L1256.683,304.7s3.6,639.826-14.175,649.088c-41.773,21.769-856.96-59.923-1113.159-98.424-39.8-5.982-86.995-14.392-107.233-21.891s-25.089-10.147-47.706-22.366c-40.533-21.9-52.31-31.416-81.179-57.6C-172.108,694.242-176.232,608.3-176.232,608.3s-15.483-165.639-12.183-333.2S-192-165.2-192-165.2Z" transform="matrix(0.719, 0.695, -0.695, 0.719, 7247.422, 10227.84)" fill="#fff"/>
        <g id="Tracé_76" data-name="Tracé 76" transform="translate(5776.988 9994.882)" fill="#fff">
          <path d="M 1198.286987304688 1888.959350585938 C 981.3701171875 1888.959350585938 779.2257080078125 1771.032104492188 754.7086181640625 1756.219970703125 C 714.4918212890625 1718.5849609375 189.2198181152344 1226.593017578125 75.98451995849609 1098.791137695312 L 63.42880249023438 1084.639404296875 C 9.604875564575195 1024.01513671875 -17.41155433654785 993.58544921875 -22.02726745605469 965.9204711914062 C -25.71798133850098 943.7990112304688 -16.55976676940918 914.802978515625 5.365589618682861 858.1740112304688 C 37.30094528198242 775.6893920898438 84.98880004882812 689.3026123046875 131.1063079833984 605.7600708007812 C 159.3834533691406 554.5358276367188 188.6234436035156 501.5675964355469 214.1773681640625 449.6443786621094 C 311.8995056152344 251.0843811035156 442.6966552734375 22.25259780883789 587.950927734375 15.11616897583008 C 591.1573486328125 15.05295467376709 628.5220336914062 15.00974082946777 698.4466552734375 15.00974082946777 L 934.6773681640625 15.08009719848633 C 1025.775268554688 15.11724090576172 1119.032348632812 15.15545463562012 1192.890625 15.15545463562012 C 1245.312744140625 15.15545463562012 1304.15771484375 14.4775972366333 1366.458129882812 13.75974082946777 C 1435.6591796875 12.96224021911621 1507.21630859375 12.13795471191406 1577.948486328125 12.13795471191406 C 1653.924194335938 12.13795471191406 1717.08984375 13.11759757995605 1771.054931640625 15.13295459747314 C 1914.689575195312 20.49688339233398 2058.604248046875 166.7129516601562 2198.80126953125 449.7200927734375 C 2215.2451171875 482.9140319824219 2240.8427734375 521.869384765625 2270.482421875 566.9761962890625 C 2322.228515625 645.7254638671875 2380.87890625 734.9818725585938 2408.188720703125 820.1522216796875 C 2447.85595703125 943.8604736328125 2421.19677734375 1002.132568359375 2342.110595703125 1093.771484375 C 2331.615234375 1105.9326171875 2319.84619140625 1119.69189453125 2306.9091796875 1134.81689453125 C 2177.686279296875 1285.893676757812 1937.153442382812 1567.105834960938 1684.7509765625 1756.195434570312 C 1552.252075195312 1855.458251953125 1429.49951171875 1888.959350585938 1198.286987304688 1888.959350585938 Z" stroke="none"/>
          <path d="M 1577.9482421875 -20.3624267578125 L 1577.9482421875 44.6375732421875 C 1507.283935546875 44.637939453125 1435.230224609375 45.469482421875 1366.8447265625 46.2572021484375 C 1304.591674804688 46.9744873046875 1245.354736328125 47.6552734375 1192.890502929688 47.6552734375 L 698.4466552734375 47.5098876953125 C 636.1871337890625 47.5098876953125 593.5716552734375 47.53369140625 589.5458984375 47.5767822265625 C 459.7855224609375 53.9522705078125 329.812744140625 288.286865234375 243.337158203125 463.9957275390625 C 217.445068359375 516.605712890625 188.0166015625 569.9149169921875 159.557373046875 621.469482421875 C 113.962158203125 704.0653076171875 66.814697265625 789.473388671875 35.6728515625 869.9075927734375 C 20.658203125 908.6887817382812 7.39892578125 944.804931640625 10.029296875 960.5722045898438 C 13.104736328125 979.0060424804688 42.792724609375 1012.444885253906 87.731201171875 1063.060668945312 L 100.309814453125 1077.238037109375 C 210.60791015625 1201.724975585938 718.5546875 1677.854614257812 774.359130859375 1730.09716796875 C 806.905029296875 1749.3408203125 997.1851806640625 1856.45947265625 1198.286743164062 1856.45947265625 C 1421.406982421875 1856.45947265625 1539.242431640625 1824.595703125 1665.26513671875 1730.1845703125 C 1914.792114257812 1543.24951171875 2153.8056640625 1263.813720703125 2282.212158203125 1113.690673828125 C 2295.18310546875 1098.526123046875 2306.983154296875 1084.730712890625 2317.50634765625 1072.537231445312 C 2392.7158203125 985.3903198242188 2411.889404296875 938.1329956054688 2377.240966796875 830.07568359375 C 2351.283935546875 749.125732421875 2293.9267578125 661.8367919921875 2243.3212890625 584.82373046875 C 2213.099853515625 538.8310546875 2186.999267578125 499.1107177734375 2169.6787109375 464.1468505859375 C 2037.072021484375 196.462646484375 1898.810546875 52.4263916015625 1769.841674804688 47.60986328125 C 1716.282470703125 45.60986328125 1653.513671875 44.6375732421875 1577.9482421875 44.6375732421875 L 1577.9482421875 -20.3624267578125 M 1577.9482421875 -20.3623046875 C 1645.443359375 -20.362548828125 1711.656860351562 -19.608154296875 1772.267456054688 -17.3447265625 C 1954.077392578125 -10.5550537109375 2106.4658203125 190.114501953125 2227.923583984375 435.2933349609375 C 2271.648681640625 523.5579833984375 2394.62744140625 671.4195556640625 2439.13671875 810.228759765625 C 2483.64599609375 949.03759765625 2449.5908203125 1018.974914550781 2366.71484375 1115.00537109375 C 2252.0986328125 1247.813720703125 1985.172119140625 1571.74072265625 1704.237060546875 1782.205688476562 C 1567.983642578125 1884.281494140625 1440.617919921875 1921.45947265625 1198.286743164062 1921.45947265625 C 955.9559326171875 1921.45947265625 734.9132080078125 1782.205688476562 734.9132080078125 1782.205688476562 C 734.9132080078125 1782.205688476562 171.2021484375 1255.264892578125 51.658935546875 1120.34375 C -15.0458984375 1045.057983398438 -47.50244140625 1010.720275878906 -54.08447265625 971.2687377929688 C -59.223388671875 940.4668579101562 -48.142822265625 906.3633422851562 -24.942626953125 846.4395751953125 C 27.54736328125 710.86572265625 118.037841796875 571.3887939453125 185.017578125 435.2933349609375 C 302.939697265625 195.688720703125 432.8275146484375 -9.8016357421875 586.3563232421875 -17.3447265625 C 593.0189208984375 -17.6719970703125 976.3487548828125 -17.3446044921875 1192.890502929688 -17.3447265625 C 1302.96533203125 -17.3447265625 1442.982421875 -20.3619384765625 1577.9482421875 -20.3623046875 Z" stroke="none" fill="#fff"/>
        </g>
      </g>
    </g>
  </g>
</svg>