<?xml version="1.0" standalone="no"?>
<!DOCTYPE svg PUBLIC "-//W3C//DTD SVG 20010904//EN"
 "http://www.w3.org/TR/2001/REC-SVG-20010904/DTD/svg10.dtd">
<svg version="1.0" xmlns="http://www.w3.org/2000/svg"
 width="604.000000pt" height="217.000000pt" viewBox="0 0 604.000000 217.000000"
 preserveAspectRatio="xMidYMid meet">

<g transform="translate(0.000000,217.000000) scale(0.100000,-0.100000)"
fill="#000000" stroke="none">
<path d="M5835 2161 c-10 -9 -244 -73 -315 -86 -32 -5 -44 -20 -152 -183 -146
-222 -284 -422 -301 -439 -11 -12 -43 25 -190 219 -97 128 -187 245 -200 260
l-23 28 -179 -20 c-99 -11 -288 -26 -420 -33 l-240 -12 4 -374 c2 -255 0 -372
-7 -370 -9 4 -82 86 -410 464 -53 61 -129 145 -171 188 l-76 77 -162 0 -163 0
0 -708 0 -708 195 1 195 0 0 398 c0 221 4 397 9 395 10 -4 91 -98 443 -519
l257 -307 53 -5 c29 -4 87 -9 130 -13 73 -6 77 -5 92 18 15 22 16 93 14 686
-3 737 -9 678 67 643 64 -29 162 -136 395 -430 154 -193 148 -159 50 -292
-149 -205 -354 -462 -427 -540 -40 -42 -73 -81 -73 -86 0 -6 28 -13 63 -17 34
-4 133 -18 219 -32 87 -14 163 -22 169 -19 13 9 185 239 293 393 43 61 81 112
85 112 3 0 60 -80 125 -178 196 -291 312 -455 342 -486 32 -31 114 -76 140
-76 19 0 161 55 273 107 l74 33 -59 44 c-108 78 -151 133 -476 601 -181 262
-175 252 -163 269 129 184 389 581 565 861 31 50 64 102 74 118 l18 27 -64 0
c-35 0 -68 -4 -73 -9z"/>
<path d="M840 1793 c-1 -120 -1 -414 0 -653 0 -239 -4 -453 -10 -475 -25 -108
-202 -163 -287 -90 -28 23 -28 23 -33 186 l-5 164 -135 16 c-74 9 -160 22
-190 27 -30 6 -57 8 -59 6 -9 -9 0 -479 10 -522 30 -139 130 -245 267 -286
203 -60 509 0 669 131 58 48 118 141 144 222 20 64 20 88 21 652 l1 586 -36
48 c-51 66 -46 78 9 25 52 -51 274 -382 536 -799 l78 -125 0 -263 0 -263 24 6
c13 3 104 16 203 28 l178 22 5 244 5 245 82 125 c45 69 159 240 253 380 l170
255 0 102 0 102 -152 3 c-84 2 -157 1 -162 -1 -5 -2 -96 -136 -204 -298 l-194
-295 -207 314 -207 314 -225 22 c-123 13 -291 32 -374 43 -82 10 -156 19 -162
19 -10 0 -13 -50 -13 -217z"/>
</g>
</svg>